<svg width="108" height="99" viewBox="0 0 108 99" fill="none" xmlns="http://www.w3.org/2000/svg">
<g filter="url(#filter0_f_19_317)">
<ellipse cx="53.5" cy="67.5" rx="31.5" ry="9.5" fill="#4DB4FF"/>
</g>
<g filter="url(#filter1_bi_19_317)">
<path fill-rule="evenodd" clip-rule="evenodd" d="M77 30C77 30.7882 76.9696 31.5693 76.9099 32.3422C80.1949 29.6296 84.4071 28 89 28C99.4934 28 108 36.5066 108 47C108 57.158 100.029 65.4541 90 65.9741V66H89H19H17V65.896C7.44667 64.8966 0 56.8179 0 47C0 37.1618 7.47752 29.07 17.0593 28.0979C18.0405 12.4156 31.0704 0 47 0C63.5685 0 77 13.4315 77 30Z" fill="url(#paint0_linear_19_317)"/>
</g>
<path fill-rule="evenodd" clip-rule="evenodd" d="M27.3256 78.5778C27.732 78.8544 28.2092 79.0013 28.6969 78.9999C29.1384 79.003 29.573 78.8878 29.9578 78.6657C30.3426 78.4435 30.6643 78.1222 30.891 77.7334L58.9342 31.0117C59.293 30.4132 59.4079 29.6938 59.254 29.009C59.1 28.3243 58.6895 27.7293 58.1114 27.3528C57.5157 27.0087 56.8144 26.9118 56.1513 27.0819C55.4882 27.2521 54.9138 27.6763 54.546 28.2675L26.5028 74.9188C26.3159 75.2124 26.1887 75.5417 26.1289 75.887C26.0691 76.2323 26.0778 76.5865 26.1547 76.9282C26.2315 77.2699 26.3748 77.5921 26.5761 77.8756C26.7773 78.1591 27.0322 78.3979 27.3256 78.5778ZM8.60718 78.9999C8.11947 79.0013 7.64229 78.8544 7.23587 78.5778C6.9425 78.3979 6.68756 78.1591 6.48636 77.8756C6.28515 77.5921 6.14182 77.2699 6.06498 76.9282C5.98814 76.5864 5.97934 76.2323 6.03916 75.887C6.09898 75.5417 6.22618 75.2124 6.41308 74.9188L26.5027 41.9885C26.678 41.6874 26.9107 41.4258 27.1869 41.2193C27.4631 41.0128 27.7771 40.8657 28.1101 40.7869C28.4431 40.708 28.7882 40.699 29.1247 40.7604C29.4611 40.8218 29.782 40.9523 30.0681 41.1441C30.6463 41.5207 31.0567 42.1157 31.2107 42.8004C31.3646 43.4851 31.2498 44.2045 30.8909 44.803L10.8012 77.7334C10.5745 78.1222 10.2529 78.4435 9.86808 78.6657C9.48328 78.8878 9.04867 79.003 8.60718 78.9999ZM50.2263 79C49.7386 79.0014 49.2614 78.8544 48.855 78.5778C48.5616 78.3979 48.3067 78.1591 48.1055 77.8756C47.9043 77.5922 47.761 77.2699 47.6841 76.9282C47.6073 76.5865 47.5985 76.2323 47.6583 75.887C47.7181 75.5418 47.8453 75.2125 48.0322 74.9189L62.2252 51.558C62.5921 50.9647 63.172 50.5435 63.8392 50.3854C64.5064 50.2274 65.2074 50.3453 65.7906 50.7136C66.3688 51.0902 66.7792 51.6852 66.9332 52.3699C67.0872 53.0547 66.9723 53.7741 66.6134 54.3726L52.4204 77.7334C52.1887 78.1176 51.866 78.4352 51.4823 78.6567C51.0986 78.8781 50.6665 78.9963 50.2263 79Z" fill="url(#paint1_linear_19_317)"/>
<path fill-rule="evenodd" clip-rule="evenodd" d="M17.9594 66H17.0001V65.896C15.4508 65.7339 13.9569 65.3857 12.5411 64.874L26.5028 41.9885C26.678 41.6874 26.9107 41.4258 27.1869 41.2193C27.4632 41.0128 27.7772 40.8657 28.1102 40.7869C28.4432 40.708 28.7883 40.699 29.1247 40.7604C29.4612 40.8218 29.7821 40.9523 30.0682 41.1441C30.6463 41.5207 31.0567 42.1157 31.2107 42.8004C31.3647 43.4851 31.2498 44.2045 30.891 44.803L17.9594 66ZM31.8642 66L54.5461 28.2675C54.9138 27.6763 55.4883 27.2521 56.1513 27.0819C56.8144 26.9118 57.5158 27.0087 58.1114 27.3528C58.6896 27.7293 59.1 28.3243 59.254 29.009C59.408 29.6938 59.2931 30.4132 58.9342 31.0117L37.9336 66H31.8642ZM59.5491 66H53.451L62.2253 51.558C62.5922 50.9647 63.172 50.5435 63.8392 50.3854C64.5065 50.2274 65.2075 50.3453 65.7907 50.7136C66.3688 51.0902 66.7793 51.6852 66.9333 52.3699C67.0872 53.0547 66.9723 53.7741 66.6135 54.3726L59.5491 66Z" fill="#E0F3FE"/>
<defs>
<filter id="filter0_f_19_317" x="0" y="36" width="107" height="63" filterUnits="userSpaceOnUse" color-interpolation-filters="sRGB">
<feFlood flood-opacity="0" result="BackgroundImageFix"/>
<feBlend mode="normal" in="SourceGraphic" in2="BackgroundImageFix" result="shape"/>
<feGaussianBlur stdDeviation="11" result="effect1_foregroundBlur_19_317"/>
</filter>
<filter id="filter1_bi_19_317" x="-7" y="-7" width="122" height="80" filterUnits="userSpaceOnUse" color-interpolation-filters="sRGB">
<feFlood flood-opacity="0" result="BackgroundImageFix"/>
<feGaussianBlur in="BackgroundImageFix" stdDeviation="3.5"/>
<feComposite in2="SourceAlpha" operator="in" result="effect1_backgroundBlur_19_317"/>
<feBlend mode="normal" in="SourceGraphic" in2="effect1_backgroundBlur_19_317" result="shape"/>
<feColorMatrix in="SourceAlpha" type="matrix" values="0 0 0 0 0 0 0 0 0 0 0 0 0 0 0 0 0 0 127 0" result="hardAlpha"/>
<feOffset dy="2"/>
<feGaussianBlur stdDeviation="4"/>
<feComposite in2="hardAlpha" operator="arithmetic" k2="-1" k3="1"/>
<feColorMatrix type="matrix" values="0 0 0 0 0 0 0 0 0 0.82 0 0 0 0 1 0 0 0 0.25 0"/>
<feBlend mode="normal" in2="shape" result="effect2_innerShadow_19_317"/>
</filter>
<linearGradient id="paint0_linear_19_317" x1="56" y1="89.5" x2="96.5" y2="1.95655e-07" gradientUnits="userSpaceOnUse">
<stop stop-color="#0082DF"/>
<stop offset="0.299998" stop-color="#48B2FF" stop-opacity="0.75"/>
<stop offset="1" stop-color="#3BADFF" stop-opacity="0"/>
</linearGradient>
<linearGradient id="paint1_linear_19_317" x1="36.5" y1="27" x2="36.5" y2="79" gradientUnits="userSpaceOnUse">
<stop stop-color="#D7F0FF"/>
<stop offset="1" stop-color="#0072DC"/>
</linearGradient>
</defs>
</svg>
