<svg width="101" height="100" viewBox="0 0 101 100" fill="none" xmlns="http://www.w3.org/2000/svg">
<path fill-rule="evenodd" clip-rule="evenodd" d="M87.9646 51.9623C86.9349 51.9092 86.1481 51.0311 86.1481 50C86.1481 48.9689 86.9349 48.0908 87.9646 48.0377L91.9098 47.8342C93.1698 47.7693 94.25 48.7383 94.25 50C94.25 51.2617 93.1698 52.2307 91.9098 52.1658L87.9646 51.9623ZM81.3761 32.1709C81.8925 33.0631 83.0138 33.4325 83.932 32.9638L87.4445 31.1704C88.5716 30.595 89.0223 29.2082 88.3885 28.1129C87.7546 27.0176 86.3316 26.7232 85.2709 27.4134L81.9653 29.5645C81.1012 30.1268 80.8598 31.2786 81.3761 32.1709ZM68.3291 19.1239C69.2214 19.6402 70.3732 19.3988 70.9355 18.5347L73.0865 15.2291C73.7768 14.1684 73.4824 12.7454 72.3871 12.1115C71.2918 11.4777 69.905 11.9284 69.3296 13.0555L67.5362 16.568C67.0675 17.4862 67.4369 18.6075 68.3291 19.1239ZM50.5 14.3519C51.5311 14.3519 52.4092 13.5651 52.4623 12.5354L52.6658 8.59015C52.7307 7.33018 51.7617 6.25 50.5 6.25C49.2383 6.25 48.2693 7.33017 48.3342 8.59016L48.5377 12.5354C48.5908 13.5651 49.4689 14.3519 50.5 14.3519ZM32.6709 19.1239C33.5631 18.6075 33.9325 17.4862 33.4638 16.568L31.6704 13.0555C31.095 11.9284 29.7082 11.4777 28.6129 12.1115C27.5176 12.7454 27.2232 14.1684 27.9134 15.2291L30.0645 18.5347C30.6268 19.3988 31.7786 19.6402 32.6709 19.1239ZM19.6239 32.1709C20.1402 31.2786 19.8988 30.1268 19.0347 29.5645L15.7291 27.4135C14.6684 26.7232 13.2454 27.0176 12.6115 28.1129C11.9777 29.2082 12.4284 30.595 13.5555 31.1704L17.068 32.9638C17.9862 33.4325 19.1075 33.0631 19.6239 32.1709ZM13.0354 48.0377C14.0651 48.0908 14.8519 48.9689 14.8519 50C14.8519 51.0311 14.0651 51.9092 13.0354 51.9623L9.09016 52.1658C7.83017 52.2307 6.75 51.2617 6.75 50C6.75 48.7383 7.83018 47.7693 9.09015 47.8342L13.0354 48.0377ZM19.6239 67.8291C19.1075 66.9369 17.9862 66.5675 17.068 67.0362L13.5555 68.8296C12.4284 69.405 11.9777 70.7918 12.6115 71.8871C13.2454 72.9824 14.6684 73.2768 15.7291 72.5865L19.0347 70.4355C19.8988 69.8732 20.1402 68.7214 19.6239 67.8291ZM32.6709 80.8761C31.7786 80.3598 30.6268 80.6012 30.0645 81.4653L27.9135 84.7709C27.2232 85.8316 27.5176 87.2546 28.6129 87.8885C29.7082 88.5223 31.095 88.0716 31.6704 86.9445L33.4638 83.432C33.9325 82.5138 33.5631 81.3925 32.6709 80.8761ZM50.5 85.6481C49.4689 85.6481 48.5908 86.4349 48.5377 87.4646L48.3342 91.4098C48.2693 92.6698 49.2383 93.75 50.5 93.75C51.7617 93.75 52.7307 92.6698 52.6658 91.4098L52.4623 87.4646C52.4092 86.4349 51.5311 85.6481 50.5 85.6481ZM68.3291 80.8761C67.4369 81.3925 67.0675 82.5138 67.5362 83.432L69.3296 86.9445C69.905 88.0716 71.2918 88.5223 72.3871 87.8885C73.4824 87.2546 73.7768 85.8316 73.0866 84.7709L70.9355 81.4653C70.3732 80.6012 69.2214 80.3598 68.3291 80.8761ZM81.3761 67.8291C80.8598 68.7214 81.1012 69.8732 81.9653 70.4355L85.2709 72.5865C86.3316 73.2768 87.7546 72.9824 88.3885 71.8871C89.0223 70.7918 88.5716 69.405 87.4445 68.8296L83.932 67.0362C83.0138 66.5675 81.8925 66.9369 81.3761 67.8291Z" fill="#FFDE33"/>
<path d="M80.4768 50C80.4768 66.5557 67.0557 79.9768 50.5 79.9768C33.9442 79.9768 20.5231 66.5557 20.5231 50C20.5231 33.4442 33.9442 20.0231 50.5 20.0231C67.0557 20.0231 80.4768 33.4442 80.4768 50Z" fill="#FFDE33"/>
</svg>
